<?xml version="1.0" standalone="no"?>
<!DOCTYPE svg PUBLIC "-//W3C//DTD SVG 20010904//EN"
 "http://www.w3.org/TR/2001/REC-SVG-20010904/DTD/svg10.dtd">
<svg version="1.0" xmlns="http://www.w3.org/2000/svg"
 width="1024.000000pt" height="219.000000pt" viewBox="0 0 1024.000000 219.000000"
 preserveAspectRatio="xMidYMid meet">

<g transform="translate(0.000000,219.000000) scale(0.100000,-0.100000)"
fill="#000000" stroke="none">
<path d="M480 1124 l0 -215 33 3 32 3 3 66 3 67 51 4 c76 8 88 27 88 145 0 86
-2 96 -25 118 -22 22 -32 25 -105 25 l-80 0 0 -216z m135 71 l0 -70 -32 -3
-33 -3 0 76 0 76 33 -3 32 -3 0 -70z"/>
<path d="M1160 1095 l0 -185 29 0 c29 0 30 2 33 53 3 48 5 52 30 55 24 3 28
-1 38 -40 17 -67 18 -68 50 -68 16 0 30 1 30 3 0 1 -7 26 -15 56 -12 47 -12
57 1 75 10 14 14 48 14 112 0 119 -5 124 -123 124 l-87 0 0 -185z m145 60 l0
-60 -40 0 -40 0 -3 49 c-4 69 1 78 45 74 l38 -3 0 -60z"/>
<path d="M1844 1267 c-2 -7 -3 -89 -2 -182 l3 -170 33 -3 32 -3 0 185 0 186
-30 0 c-17 0 -33 -6 -36 -13z"/>
<path d="M2370 1273 c1 -5 20 -87 43 -183 l42 -175 36 -3 35 -3 42 178 c23 98
42 181 42 186 0 4 -13 7 -29 7 -32 0 -30 3 -72 -189 -6 -28 -14 -51 -18 -51
-5 0 -16 37 -25 83 -33 157 -33 157 -66 157 -17 0 -30 -3 -30 -7z"/>
<path d="M3081 1243 c-22 -83 -81 -322 -81 -327 0 -4 13 -6 30 -6 25 0 31 5
38 33 8 31 10 32 65 35 l56 3 7 -36 c6 -32 9 -35 39 -35 l32 0 -46 185 -46
185 -42 0 c-40 0 -43 -2 -52 -37z m73 -128 c9 -35 16 -67 16 -70 0 -3 -16 -5
-35 -5 -22 0 -35 5 -35 13 0 30 23 127 30 127 4 0 15 -29 24 -65z"/>
<path d="M3672 1253 c2 -24 9 -29 38 -33 l35 -5 3 -152 3 -153 29 0 29 0 3
153 3 152 35 5 c29 4 35 9 35 30 0 25 0 25 -108 28 l-108 3 3 -28z"/>
<path d="M4350 1095 l0 -185 106 0 105 0 -3 28 c-3 26 -5 27 -73 32 l-70 5 0
40 0 40 55 5 c51 5 55 7 55 30 0 23 -4 25 -55 30 l-55 5 0 40 0 40 70 5 70 5
3 33 3 32 -105 0 -106 0 0 -185z"/>
<path d="M5580 1095 l0 -185 30 0 c28 0 29 1 32 58 l3 57 51 3 c36 2 57 9 70
23 20 22 30 108 20 163 -11 58 -27 66 -122 66 l-84 0 0 -185z m135 60 l0 -60
-37 -3 -38 -3 0 66 0 66 38 -3 37 -3 0 -60z"/>
<path d="M6252 1107 c-23 -95 -42 -178 -42 -185 0 -7 13 -12 29 -12 25 0 30 5
35 35 l7 36 56 -3 c55 -3 57 -4 65 -35 7 -28 13 -33 38 -33 17 0 30 2 30 6 0
3 -16 69 -36 147 -60 243 -49 217 -97 217 l-43 0 -42 -173z m107 16 c16 -82
16 -83 -24 -83 -19 0 -35 2 -35 5 0 21 34 135 40 135 4 0 12 -26 19 -57z"/>
<path d="M6930 1095 l0 -185 29 0 c29 0 30 2 33 53 3 46 6 52 27 55 29 4 37
-8 46 -65 6 -41 8 -43 41 -43 19 0 34 1 34 3 0 1 -7 26 -15 56 -12 47 -12 57
1 75 20 29 20 184 -2 214 -14 20 -23 22 -105 22 l-89 0 0 -185z m145 60 l0
-60 -42 -3 -43 -3 0 59 c0 32 3 62 7 66 4 4 23 6 43 4 l35 -3 0 -60z"/>
<path d="M7610 1095 l0 -185 35 0 35 0 0 49 c0 53 7 81 20 81 5 0 25 -29 45
-65 33 -60 38 -65 71 -65 l34 0 -50 101 -51 100 46 79 c25 44 45 82 45 85 0 3
-15 5 -33 5 -30 0 -36 -6 -71 -65 -21 -36 -42 -68 -47 -71 -5 -3 -9 26 -9 65
l0 71 -35 0 -35 0 0 -185z"/>
<path d="M8320 1095 l0 -185 30 0 30 0 0 185 0 185 -30 0 -30 0 0 -185z"/>
<path d="M8854 1267 c-2 -7 -3 -89 -2 -182 l3 -170 30 0 30 0 5 100 5 100 49
-102 c45 -95 51 -103 78 -103 l28 0 0 185 0 185 -30 0 -30 0 0 -100 c0 -55 -4
-100 -8 -100 -4 0 -30 45 -57 100 -41 84 -53 100 -72 100 -13 0 -26 -6 -29
-13z"/>
<path d="M9569 1263 c-11 -12 -14 -54 -14 -170 0 -183 0 -183 105 -183 91 0
100 11 100 119 l0 82 -47 -3 c-42 -3 -48 -6 -51 -26 -3 -17 2 -25 18 -29 17
-5 21 -12 18 -42 -3 -34 -5 -36 -40 -39 l-38 -3 0 126 0 126 37 -3 c30 -2 38
-8 43 -28 4 -18 13 -26 33 -28 26 -3 27 -1 27 42 0 64 -16 76 -104 76 -56 0
-77 -4 -87 -17z"/>
</g>
</svg>
